<?xml version="1.0" encoding="utf-8"?>
<!-- Generator: Adobe Illustrator 25.0.0, SVG Export Plug-In . SVG Version: 6.00 Build 0)  -->
<svg version="1.1" id="Layer_1" xmlns="http://www.w3.org/2000/svg" xmlns:xlink="http://www.w3.org/1999/xlink" x="0px" y="0px"
	 viewBox="0 0 325.6 229.5" style="enable-background:new 0 0 325.6 229.5;" xml:space="preserve">
<style type="text/css">
	.st0{fill:none;stroke:#000000;stroke-width:25;stroke-miterlimit:10;}
</style>
<path class="st0" d="M55.2,12.5h215.1c23.6,0,42.7,19.1,42.7,42.7v119c0,23.6-19.1,42.7-42.7,42.7H55.2c-23.6,0-42.7-19.1-42.7-42.7
	v-119C12.5,31.6,31.6,12.5,55.2,12.5z"/>
<path d="M60.4,49.1h204.8c5.2,0,9.4,4.2,9.4,9.4v0c0,5.2-4.2,9.4-9.4,9.4H60.4c-5.2,0-9.4-4.2-9.4-9.4v0
	C51,53.3,55.2,49.1,60.4,49.1z"/>
</svg>
