<?xml version="1.0" encoding="utf-8"?>
<!-- Generator: Adobe Illustrator 25.0.0, SVG Export Plug-In . SVG Version: 6.00 Build 0)  -->
<svg version="1.1" id="Layer_1" xmlns="http://www.w3.org/2000/svg" xmlns:xlink="http://www.w3.org/1999/xlink" x="0px" y="0px"
	 viewBox="0 0 325.6 229.5" style="enable-background:new 0 0 325.6 229.5;" xml:space="preserve">
<style type="text/css">
	.st0{fill:none;stroke:#000000;stroke-width:25;stroke-miterlimit:10;}
</style>
<g>
	<path class="st0" d="M12.5,174.3v-119c0-23.6,19.1-42.7,42.7-42.7h215.1c23.6,0,42.7,19.1,42.7,42.7v119
		c0,23.6-19.1,42.7-42.7,42.7H55.2C31.6,217,12.5,197.9,12.5,174.3z"/>
	<path d="M51,171L51,171c0-5.2,4.2-9.4,9.4-9.4h204.8c5.2,0,9.4,4.2,9.4,9.4l0,0c0,5.2-4.2,9.4-9.4,9.4H60.4
		C55.2,180.4,51,176.2,51,171z"/>
</g>
</svg>
