<?xml version="1.0" encoding="utf-8"?>
<!-- Generator: Adobe Illustrator 25.0.0, SVG Export Plug-In . SVG Version: 6.00 Build 0)  -->
<svg version="1.1" id="Layer_1" xmlns="http://www.w3.org/2000/svg" xmlns:xlink="http://www.w3.org/1999/xlink" x="0px" y="0px"
	 viewBox="0 0 195.9 250.6" style="enable-background:new 0 0 195.9 250.6;" xml:space="preserve">
<g>
	<path d="M164.7,73.9c-0.4,0.6-0.7,1.2-1.2,1.6c-6.3,6.4-12.7,12.7-19,19.1c-1.1,1.1-2,1.1-3.1,0c-4.4-4.4-8.8-8.8-13.3-13.2
		c-1.2-1.2-1.5-2.2-0.1-3.5c6.3-6.1,12.5-12.2,18.6-18.4c1.6-1.6,2.6-1.4,4,0.1c4.2,4.3,8.5,8.5,12.7,12.7
		C163.8,72.8,164.1,73.3,164.7,73.9z"/>
	<path d="M160.2,57c-1.4-21.5-9.3-27.1-26.9-29.4c1.8-0.4,3.7-0.7,5.5-1.1c4.8-0.9,9.4-2.1,13.2-5.5c5.1-4.5,6.5-10.7,7.4-17
		c0.2-1.3,0.2-2.6,0.9-4c0.4,2,0.8,4.1,1.1,6.1c1.7,12.2,8.7,19,21,20.4c1.6,0.2,3.2,0.6,4.9,1.4c-2.6,0.5-5.2,0.8-7.8,1.4
		c-10.6,2.2-16.3,8.3-17.9,19C161.1,51.3,160.6,54.1,160.2,57z"/>
	<path d="M100.7,54.1c1.1,2.6,2,6.8,4.5,9.5c2.5,2.7,6.7,3.9,10.2,5.7c-3.6,0.9-8.1,1.3-10.3,4.9c-2.1,3.3-3.3,7.2-4.6,10.2
		c-2.1-9.8-2.6-12.2-14.4-15.1c3.3-1.8,7.5-2.9,10-5.7C98.7,61,99.5,56.8,100.7,54.1z"/>
	<path d="M182.6,105.3c-1-7-4.4-12.2-12.9-12.7c3.6-1.9,7-3,9.1-5.2c2.1-2.2,2.9-5.7,4.4-8.8c0.7,7.4,4.6,12.2,12.7,12.9
		c-3.4,1.8-6.9,2.8-9,5C184.8,98.8,184,102.3,182.6,105.3z"/>
	<path d="M137,101.9c-0.4,0.5-0.8,1.1-1.3,1.6c-11.4,11.4-22.9,22.8-34.3,34.2c-17.7,17.6-35.4,35.3-53.1,52.9
		c-0.4,0.4-0.8,0.7-1.2,1.2c-0.8,1-1.6,0.7-2.7-0.4c-4.5-4.5-8.9-9-13.4-13.4c-1.5-1.5-0.9-2.2-0.1-3c9.7-9.6,19.4-19.4,29.1-29
		c19.7-19.6,39.4-39.1,59-58.8c1.3-1.3,2.3-1.1,4,0.6c4.1,4.3,8.3,8.4,12.5,12.6C136.1,100.7,136.4,101.3,137,101.9z"/>
</g>
</svg>
